<?xml version="1.0" standalone="no"?>
<!DOCTYPE svg PUBLIC "-//W3C//DTD SVG 1.1//EN" "http://www.w3.org/Graphics/SVG/1.1/DTD/svg11.dtd" >
<svg xmlns="http://www.w3.org/2000/svg">
<metadata></metadata>
<defs>
<font id="bpreplayitalic" horiz-adv-x="1249" >
<font-face units-per-em="2048" ascent="1638" descent="-410" />
<missing-glyph horiz-adv-x="579" />
<glyph horiz-adv-x="0" />
<glyph horiz-adv-x="682" />
<glyph unicode=" "  horiz-adv-x="579" />
<glyph unicode="&#x09;" horiz-adv-x="579" />
<glyph unicode="&#xa0;" horiz-adv-x="579" />
<glyph unicode="!" horiz-adv-x="436" d="M10 90q4 51 36.5 83t76.5 32q40 0 66 -28t26 -75q-4 -43 -37 -72.5t-76 -29.5q-40 0 -66 26t-26 64zM63 354l117 1131q9 88 84 88q66 0 66 -70l-117 -1132q-9 -76 -84 -76q-66 0 -66 59z" />
<glyph unicode="&#x22;" horiz-adv-x="663" d="M123 1186l33 301q9 88 84 88q65 0 65 -70l-33 -319q-9 -80 -84 -80q-34 0 -49.5 19t-15.5 61zM408 1186l32 301q9 88 86 88q70 0 70 -72l-33 -317q-9 -80 -88 -80q-35 0 -51 18.5t-16 61.5z" />
<glyph unicode="#" horiz-adv-x="1323" d="M55 516q3 40 31.5 60t63.5 20h163l86 332h-151q-70 0 -70 55q5 78 84 78h168l102 434q18 76 74 76q27 0 46.5 -18t19.5 -44l-109 -448h287l106 434q18 78 74 78q26 0 44 -17t18 -43l-105 -452h143q31 0 52.5 -15t21.5 -45q0 -39 -30 -56t-68 -17h-150l-86 -332h148 q67 0 67 -61q-4 -39 -31.5 -58.5t-58.5 -19.5h-155l-92 -357q-26 -100 -99 -100q-45 0 -45 45q1 6 2 13l1.5 10.5t0.5 7.5l97 381h-289l-88 -357q-24 -100 -99 -100q-47 0 -47 45q1 6 2 13t1.5 11t0.5 7l97 381h-142q-86 0 -86 59zM446 596h289l84 332h-287z" />
<glyph unicode="$" horiz-adv-x="1122" d="M57 154q3 41 25.5 65.5t56.5 24.5q33 0 121 -45.5t141 -48.5l66 612q-150 40 -249 134t-99 230q0 179 129 310.5t303 140.5l8 78q9 65 51 65q37 0 37 -47l-10 -96q37 -1 88 -13t102.5 -32.5t87 -55t35.5 -73.5q-6 -80 -78 -80q-22 0 -62.5 24.5t-91.5 50.5t-95 29 l-56 -516q79 -28 144.5 -66t119.5 -89.5t84.5 -119.5t30.5 -147q0 -96 -40 -186t-105.5 -155t-152 -105.5t-175.5 -42.5q-5 -33 -10 -100q-6 -56 -47 -56q-43 0 -43 56l14 100q-42 3 -94.5 14t-107.5 29.5t-91.5 47.5t-36.5 63zM291 1169q0 -82 56.5 -140.5t137.5 -84.5 l52 483q-103 -19 -170 -89t-76 -169zM487 141q123 28 206 119t83 207q0 183 -227 262z" />
<glyph unicode="%" horiz-adv-x="1660" d="M123 1155q0 113 50.5 208.5t138.5 151.5t194 56q141 0 222 -95t81 -237q0 -112 -50.5 -209.5t-139 -156t-193.5 -58.5q-142 0 -222.5 98t-80.5 242zM262 1155q0 -94 44.5 -158.5t131.5 -64.5q57 0 104.5 27.5t76 71.5t44 95t15.5 101q0 98 -49 162.5t-135 64.5 q-56 0 -102 -29t-73.5 -74t-42 -96t-14.5 -100zM371 29q2 24 10 43l709 1429q30 62 86 62q24 0 38.5 -17t14.5 -41q-3 -36 -17 -61l-723 -1444q-6 -11 -24.5 -21t-44.5 -10q-21 0 -35 16.5t-14 43.5zM795 336q0 174 112.5 297t274.5 123q140 0 218.5 -96.5t78.5 -239.5 q0 -173 -108 -296.5t-267 -123.5q-146 0 -227.5 95t-81.5 241zM934 336q0 -95 45 -158t135 -63q74 0 129.5 46.5t81 110.5t25.5 131q0 96 -47 166t-134 70q-57 0 -103.5 -29t-74.5 -75t-42.5 -97.5t-14.5 -101.5z" />
<glyph unicode="&#x26;" horiz-adv-x="1513" d="M41 373q0 319 434 579q-34 41 -51.5 64t-40.5 59.5t-33 71.5t-10 72q0 147 104 249.5t244 102.5q110 0 185 -69t75 -199q0 -63 -22 -121.5t-62.5 -108t-80 -86.5t-91.5 -76l340 -438l144 205q56 80 110 80q29 0 46.5 -16t17.5 -42q-3 -54 -41 -104l-193 -250 q84 -105 125.5 -160t49 -68t7.5 -22v-8q-3 -35 -29 -61.5t-57 -26.5q-35 0 -55 20l-149 226q-104 -135 -234.5 -212t-267.5 -77q-218 0 -341.5 115t-123.5 301zM195 393q0 -128 83.5 -209.5t213.5 -81.5q113 0 232 72t204 191l-373 477q-360 -228 -360 -449zM500 1251 q0 -123 110 -233q92 70 143.5 136t51.5 146q0 66 -39.5 100t-95.5 34q-76 0 -123 -54.5t-47 -128.5z" />
<glyph unicode="'" horiz-adv-x="528" d="M121 1155q4 29 8 35l156 309q40 76 100 76q31 0 53.5 -23t22.5 -55q-3 -28 -15 -49l-165 -301q-30 -55 -84 -55q-30 0 -53 18t-23 45z" />
<glyph unicode="(" horiz-adv-x="593" d="M66 551q0 274 95.5 524.5t289.5 450.5q32 22 59 22t44 -18t17 -47q-3 -32 -30 -58q-161 -170 -246.5 -393.5t-85.5 -472.5q0 -379 184 -594q13 -26 13 -47v-8q-3 -29 -23.5 -47.5t-48.5 -18.5q-36 0 -62 29q-106 119 -156 297.5t-50 380.5z" />
<glyph unicode=")" horiz-adv-x="593" d="M-10 -90q3 27 22 55q164 159 251 391t87 484q0 342 -178 585q-18 24 -18 58q1 27 23 46t50 19q31 0 56 -22q213 -261 213 -656q0 -173 -38.5 -350.5t-127.5 -354.5t-217 -292q-33 -29 -66 -29q-26 0 -41.5 16t-15.5 42v8z" />
<glyph unicode="*" d="M381 997q4 29 27 50l223 110l-195 111q-22 19 -22 53q3 24 23 41.5t44 17.5q7 0 23 -4l190 -133l15 240q18 57 67 57q20 0 35.5 -13t19.5 -38l-40 -246l208 125q15 10 37 10t38 -16t16 -43q-4 -32 -37 -55l-224 -107l199 -102q29 -15 29 -56q-3 -24 -22.5 -41.5 t-45.5 -17.5q-16 0 -31 6l-186 119l-8 -219q-3 -32 -24 -50t-46 -18q-22 0 -37.5 16t-15.5 46l33 225l-211 -123q-16 -4 -27 -4q-23 0 -39 16t-16 43z" />
<glyph unicode="+" d="M109 549q4 49 31.5 72.5t70.5 23.5h373l39 375q5 40 29.5 64t62.5 24q33 0 54.5 -23t21.5 -57l-39 -383h372q43 0 66.5 -20t23.5 -52q-6 -100 -108 -100h-373l-41 -387q-5 -36 -30 -61t-60 -25q-36 0 -57 20t-21 54l41 399h-372q-39 0 -61.5 19.5t-22.5 56.5z" />
<glyph unicode="," horiz-adv-x="526" d="M-20 -213q0 15 8 35l170 334q33 65 92 65q29 0 48 -18t19 -45q0 -18 -6 -27l-192 -360q-27 -52 -74 -52q-27 0 -46 20t-19 48z" />
<glyph unicode="-" horiz-adv-x="792" d="M66 557q3 40 30 64t68 24h422q80 0 80 -70q-8 -86 -97 -86h-422q-81 0 -81 68z" />
<glyph unicode="." horiz-adv-x="438" d="M10 90q4 51 36.5 83t76.5 32q40 0 66 -26t26 -64q-4 -51 -36.5 -83t-76.5 -32q-40 0 -66 26t-26 64z" />
<glyph unicode="/" d="M268 29q2 21 11 43l708 1429q30 62 86 62q24 0 38.5 -18t14.5 -48q-4 -31 -16 -53l-723 -1444q-5 -11 -24.5 -21t-45.5 -10q-21 0 -35 16.5t-14 43.5z" />
<glyph unicode="0" horiz-adv-x="1216" d="M53 614q0 80 10.5 168t33.5 181.5t56.5 180.5t83 165t108.5 136t137.5 92t166.5 34h8q93 0 167 -38.5t121 -101t78 -148.5t43.5 -175t12.5 -186q0 -78 -10.5 -164t-34 -178.5t-57 -179t-82.5 -164t-108 -135.5t-137 -92t-165 -34q-96 0 -171.5 37t-123.5 98.5 t-79.5 145.5t-44.5 172.5t-13 185.5zM225 641q0 -74 8.5 -143.5t29 -137t51.5 -117t79.5 -80t108.5 -30.5q72 0 133.5 40.5t104.5 107.5t76.5 148.5t52.5 169.5t28.5 164.5t9.5 139.5q0 96 -14 181.5t-43.5 160.5t-83.5 119.5t-127 44.5q-88 0 -160.5 -57t-118 -143 t-77.5 -192.5t-45 -201.5t-13 -174z" />
<glyph unicode="1" horiz-adv-x="720" d="M55 1339q2 34 23 59.5t61 35.5q312 86 322 86q24 0 40 -12t21 -29l4 -35q0 -12 -4 -70l-135 -1286q-5 -39 -29.5 -63.5t-60.5 -24.5q-35 0 -55.5 21t-20.5 55l131 1265l-207 -57q-20 -4 -26 -4q-28 0 -46 16t-18 43z" />
<glyph unicode="2" horiz-adv-x="1171" d="M57 66v8q3 34 39 76l637 757q119 143 119 285q0 97 -71.5 156t-170.5 59q-108 0 -194 -72.5t-99 -201.5q-4 -34 -29 -66.5t-63 -32.5q-37 0 -56 30t-19 69v10q14 126 89.5 224.5t180 148t215.5 49.5q101 0 189 -41.5t143 -122t55 -182.5q0 -206 -188 -428l-539 -635h563 q70 0 70 -66v-10q-9 -80 -86 -80h-678q-107 0 -107 66z" />
<glyph unicode="3" horiz-adv-x="1132" d="M68 305q4 38 26 60t51 22q22 0 42.5 -14t29.5 -39q32 -98 96 -146.5t152 -48.5q139 0 234.5 96t95.5 228q0 99 -53.5 173.5t-157.5 92.5q-24 4 -119 4q-86 3 -86 68v8q9 74 100 74q97 0 117 4q68 14 118 67t72.5 118t22.5 130q0 100 -58.5 157.5t-164.5 57.5 q-88 0 -157.5 -59.5t-78.5 -145.5q-5 -46 -28 -74t-62 -28q-76 0 -76 88q14 148 138.5 260.5t289.5 112.5q169 0 267 -99t98 -253q0 -226 -207 -392q96 -64 143.5 -155t47.5 -195q0 -141 -70 -257t-183.5 -179.5t-244.5 -63.5q-99 0 -189 41t-148 117.5t-58 169.5z" />
<glyph unicode="4" horiz-adv-x="1198" d="M43 475v8q7 43 35 78l627 862q69 97 165 97q63 0 90 -42.5t27 -105.5l-88 -829h98q68 0 68 -66q-6 -88 -76 -88h-106l-31 -293q-9 -96 -86 -96q-72 0 -72 80l31 307h-584q-48 0 -73 25t-25 63zM242 543h499l86 805z" />
<glyph unicode="5" horiz-adv-x="1189" d="M29 223q4 42 25 63t48 21q42 0 60 -35q42 -63 125 -103t166 -40q102 0 188.5 57t134 145.5t47.5 182.5q0 128 -78 216.5t-225 88.5q-58 0 -118 -17.5t-89 -17.5q-75 0 -75 64q0 12 6.5 39t42 151.5t114.5 395.5q24 82 125 82h439q31 0 49 -22t18 -56q-9 -88 -84 -88h-422 l-110 -396q74 17 157 17q103 0 184.5 -34.5t131 -94t75 -134t25.5 -159.5q0 -119 -46 -226.5t-123 -183t-180 -120t-214 -44.5q-164 0 -280.5 80t-116.5 168z" />
<glyph unicode="6" horiz-adv-x="1144" d="M51 446q0 123 37 248.5t96 231.5t143 212t168 189t181 164q39 31 74 31q33 0 54 -18.5t21 -51.5q-3 -41 -26 -61q-140 -120 -272 -268t-193 -253q104 109 293 109q157 0 260.5 -117t103.5 -303q0 -111 -40.5 -217t-110 -187t-169.5 -130.5t-210 -49.5q-100 0 -180 38 t-129 103.5t-75 149.5t-26 180zM209 446q0 -133 73 -226t203 -93q154 20 251.5 137t97.5 266q0 59 -17 111.5t-50.5 94.5t-90 66.5t-129.5 24.5q-102 0 -181.5 -58.5t-118 -144t-38.5 -178.5z" />
<glyph unicode="7" horiz-adv-x="1132" d="M90 1421q4 51 29.5 74t73.5 23h725q36 0 61 -23.5t25 -62.5q-2 -31 -19 -64l-678 -1284q-47 -84 -106 -84q-33 0 -48.5 19.5t-15.5 48.5q3 43 15 61l649 1223h-625q-86 0 -86 69z" />
<glyph unicode="8" horiz-adv-x="1126" d="M49 385q0 145 85 268t216 183q-79 52 -121.5 130t-42.5 175q0 89 39 168.5t102 133.5t143 86t161 32q156 0 254 -91t98 -239q0 -122 -65 -218t-170 -165q103 -53 162 -149.5t59 -213.5q0 -136 -72 -254.5t-188 -187t-244 -68.5q-189 0 -302.5 114t-113.5 296zM225 410 q0 -119 69.5 -196t188.5 -77q92 0 166 53t111 131.5t37 163.5q0 117 -71 195t-179 78q-92 0 -167.5 -52.5t-115 -132t-39.5 -163.5zM350 1141q0 -98 57.5 -164t155.5 -66q75 0 133.5 47t86.5 113.5t28 134.5q0 94 -58.5 148.5t-142.5 54.5q-111 0 -185.5 -81t-74.5 -187z " />
<glyph unicode="9" horiz-adv-x="1204" d="M80 993q0 154 69 285.5t194 211t278 79.5q198 0 309.5 -132t111.5 -343q0 -132 -37 -266t-99 -250.5t-147 -227t-177.5 -199.5t-194.5 -165q-32 -23 -65 -23q-29 0 -47.5 17.5t-18.5 42.5q4 53 47 86q153 121 287 272t180 248q-109 -90 -272 -90q-100 0 -181 37.5 t-132 101t-78 144.5t-27 171zM244 997q0 -142 80 -223.5t200 -81.5q111 0 196 59t127 149t42 194q0 62 -17 117.5t-50.5 101t-91 72t-132.5 26.5q-82 0 -150.5 -38t-112 -98.5t-67.5 -133t-24 -144.5z" />
<glyph unicode=":" horiz-adv-x="434" d="M10 90q4 51 36.5 83t76.5 32q40 0 66 -28t26 -75q-4 -43 -37 -72.5t-76 -29.5q-40 0 -66 26t-26 64zM86 807q3 51 36 83t77 32q41 0 66.5 -28.5t25.5 -74.5q-4 -43 -38 -72.5t-77 -29.5q-39 0 -64.5 25.5t-25.5 64.5z" />
<glyph unicode=";" horiz-adv-x="526" d="M-20 -213q0 -28 19 -48t46 -20q47 0 74 52l192 360q6 9 6 27q0 27 -19 45t-48 18q-59 0 -92 -65l-170 -334q-8 -20 -8 -35zM188 807q0 50 34 82.5t79 32.5q41 0 66.5 -27.5t25.5 -67.5q0 -48 -34.5 -79t-79.5 -31q-39 0 -65 25.5t-26 64.5z" />
<glyph unicode="&#x3c;" horiz-adv-x="1300" d="M98 561q6 69 82 103l977 434q40 16 72 16q26 0 40.5 -16t14.5 -41q-3 -33 -20.5 -53.5t-55.5 -38.5l-886 -406l786 -401q68 -36 68 -80q-3 -36 -23 -56t-53 -20q-30 0 -78 23l-862 452q-62 30 -62 84z" />
<glyph unicode="=" d="M92 362q6 91 82 91h963q67 0 67 -62q-4 -47 -24.5 -67.5t-59.5 -20.5h-962q-66 0 -66 59zM137 788q6 89 80 89h963q67 0 67 -62q-3 -46 -23 -67t-59 -21h-962q-66 0 -66 61z" />
<glyph unicode="&#x3e;" horiz-adv-x="1300" d="M51 70q3 28 24 48t64 40l869 401l-801 406q-60 29 -60 84q3 28 23.5 46.5t48.5 18.5t68 -16l887 -434q61 -31 61 -84q-6 -67 -82 -103l-956 -452q-54 -23 -82 -23q-31 0 -47.5 18t-16.5 50z" />
<glyph unicode="?" horiz-adv-x="987" d="M178 1188q18 153 138 243.5t262 90.5q137 0 229 -84t92 -234q0 -63 -18 -128.5t-44.5 -121.5t-72 -120.5t-84 -111t-99 -108t-98 -97t-98.5 -91.5q-30 -27 -61 -27q-30 0 -48 18t-18 48v10q4 32 53 76q54 49 76.5 70t78 75.5t84.5 88.5t71.5 90.5t64 101t38.5 99.5 t17 106q0 91 -55 138.5t-135 47.5q-77 0 -141.5 -53.5t-81.5 -132.5q-9 -41 -32 -64.5t-52 -23.5t-47.5 23t-18.5 71zM215 102q0 42 34.5 72.5t78.5 30.5q40 0 66 -28t26 -75q0 -42 -34.5 -72t-78.5 -30q-40 0 -66 27.5t-26 74.5z" />
<glyph unicode="@" horiz-adv-x="1767" d="M104 641q0 190 61.5 361t170 298.5t269 202t347.5 74.5q139 0 256 -39t203 -111.5t134 -183t48 -246.5q0 -90 -22 -194.5t-64 -205.5t-115 -168t-163 -67q-112 0 -193 117q-114 -114 -250 -114q-77 0 -136.5 27.5t-95.5 74.5t-54.5 107t-18.5 128q0 120 48.5 230 t143.5 183t214 73q109 0 190 -90q17 88 76 88q33 0 47 -16.5t14 -51.5q0 -88 -23.5 -254.5t-23.5 -247.5q0 -116 70 -116q59 0 105 55t69 135t34 151.5t11 123.5q0 221 -138.5 350t-361.5 129q-161 0 -297 -69t-223 -181t-135.5 -251t-48.5 -284q0 -249 152 -399.5 t387 -150.5q141 0 281 40.5t235 135.5q44 41 79 41q24 0 38 -12t14 -33q-3 -50 -33 -80q-121 -121 -277 -174.5t-321 -53.5q-140 0 -267 47t-224 131t-154.5 211.5t-57.5 278.5zM629 721q0 -92 47 -153.5t141 -61.5q125 0 197 104l37 357q-68 82 -154 82q-63 0 -115.5 -31 t-85 -80t-50 -105.5t-17.5 -111.5z" />
<glyph unicode="A" horiz-adv-x="1357" d="M6 61q2 21 12 52l603 1310q44 93 127 93q86 0 110 -93l340 -1310q6 -12 6 -29q0 -36 -21.5 -60t-56.5 -24q-58 0 -67 49l-82 262h-696l-117 -233q-40 -78 -98 -78q-30 0 -45 17t-15 44zM340 467h598l-209 840z" />
<glyph unicode="B" horiz-adv-x="1222" d="M8 74q0 16 2 26l137 1317q12 99 95 99h395q65 0 132.5 -18.5t129 -55.5t100.5 -102t39 -148q0 -123 -78.5 -224.5t-189.5 -136.5q129 -21 219 -124.5t90 -239.5q0 -96 -41 -184t-108 -149t-154 -97.5t-176 -36.5h-481q-68 0 -90 16q-21 18 -21 58zM166 150h387 q146 0 251 86.5t105 220.5q0 89 -52 154.5t-133.5 97.5t-178.5 32h-316zM244 881h266q61 0 120 14t112 42t88.5 76.5t41.5 110.5q0 115 -72 178.5t-190 63.5h-315z" />
<glyph unicode="C" horiz-adv-x="1419" d="M72 655q0 173 59 338t161.5 293.5t254.5 206.5t325 78q252 0 414 -168q33 -29 33 -68q-4 -40 -27 -64t-55 -24q-15 0 -33.5 7.5t-27.5 17.5q-59 65 -144 99t-182 34q-114 0 -214 -43t-171 -115t-122 -165t-76 -193.5t-25 -200.5q0 -110 29.5 -208t86 -176t149.5 -123.5 t210 -45.5q195 0 352 141q26 23 53 23q33 0 49.5 -18.5t16.5 -47.5v-10q-7 -50 -39 -76q-213 -170 -457 -170q-124 0 -227 36.5t-175 99.5t-121.5 149.5t-73 185.5t-23.5 207z" />
<glyph unicode="D" horiz-adv-x="1318" d="M6 57q0 17 2 27l139 1333q12 99 129 99h406q132 0 237 -55t169 -148t97.5 -209t33.5 -246q0 -125 -34 -250t-100 -234t-154 -193t-204.5 -132.5t-243.5 -48.5h-397q-45 0 -62.5 11t-17.5 46zM166 150h321q109 0 203.5 43.5t160 114.5t112.5 162.5t69.5 188t22.5 189.5 q0 105 -25 197t-74 164.5t-129 114.5t-182 42h-350z" />
<glyph unicode="E" horiz-adv-x="976" d="M6 57q0 21 2 35l142 1331q9 93 92 93h622q68 0 68 -60q-3 -48 -23 -69t-59 -21h-557l-53 -504h458q68 0 68 -65q-4 -44 -24.5 -64t-59.5 -20h-459l-59 -563h573q80 0 80 -62q-3 -46 -26 -67t-68 -21h-639q-45 0 -61.5 12t-16.5 45z" />
<glyph unicode="F" horiz-adv-x="897" d="M6 53l141 1364q12 99 95 99h604q67 0 67 -60q-3 -48 -23 -69t-59 -21h-536l-57 -541h405q68 0 68 -65q-4 -45 -24.5 -65.5t-59.5 -20.5h-406l-63 -613q-6 -61 -84 -61q-68 0 -68 53z" />
<glyph unicode="G" horiz-adv-x="1439" d="M72 633q0 140 34 277t102.5 258t161.5 213t220.5 146t271.5 54q117 0 237 -48t199 -140q29 -32 29 -62q-3 -36 -28.5 -64t-61.5 -28q-16 0 -36 10.5t-32 22.5q-145 145 -333 145q-99 0 -185.5 -33.5t-150 -91.5t-114 -133.5t-81.5 -161.5t-47 -172.5t-16 -169.5 q0 -105 27 -197t80 -165t140.5 -115.5t198.5 -42.5q139 0 251 75.5t177 199t82 276.5q3 28 -6 31h-420q-82 0 -82 63v11q9 75 105 75h444q67 0 91 -33t24 -94q0 -116 -34.5 -229.5t-98 -208.5t-148 -168.5t-190.5 -114.5t-219 -41q-119 0 -218 35t-167 96t-115.5 144.5 t-69.5 179t-22 201.5z" />
<glyph unicode="H" horiz-adv-x="1355" d="M6 63l146 1381q6 76 79 76q70 0 70 -64v-12l-63 -598h845l64 598q9 76 80 76t71 -66l-145 -1380q-6 -74 -84 -74q-68 0 -68 63l66 631h-846l-65 -620q-6 -74 -80 -74q-70 0 -70 63z" />
<glyph unicode="I" horiz-adv-x="360" d="M6 63l146 1381q6 76 79 76q70 0 70 -64l-145 -1380q-9 -76 -82 -76q-68 0 -68 63z" />
<glyph unicode="J" horiz-adv-x="851" d="M12 125v8q9 78 78 78q17 0 82 -47q62 -47 143 -47q88 0 143 50t64 138l121 1139q9 76 82 76q72 0 72 -76l-121 -1139q-15 -152 -119.5 -242t-257.5 -90q-162 0 -268 103q-19 19 -19 49z" />
<glyph unicode="K" horiz-adv-x="1183" d="M6 57l146 1399q6 64 79 64q72 0 72 -56v-8l-78 -747l797 788q19 19 49 19t53 -23t23 -53q-3 -35 -25 -54l-491 -481l393 -772q18 -18 18 -51v-8q-3 -33 -33 -54.5t-51 -21.5q-17 0 -30 5.5t-19 11t-16 18.5l-385 760l-305 -289l-45 -438q-6 -66 -80 -66q-72 0 -72 57z " />
<glyph unicode="L" horiz-adv-x="1021" d="M8 94q0 4 1 11.5t1 11.5l142 1327q6 76 79 76q70 0 70 -64l-137 -1306h657q68 0 68 -60q-3 -48 -23 -69t-59 -21h-707q-92 0 -92 94z" />
<glyph unicode="M" horiz-adv-x="1828" d="M6 61v11l4 24l338 1274q41 154 148 154q102 0 129 -138l217 -1116l463 1116q56 134 159 134q107 0 113 -150l55 -1288q-1 -36 -25 -58t-57 -22q-70 0 -73 82l-43 1243l-531 -1239q-37 -88 -92 -88q-58 0 -76 88l-254 1241l-319 -1243q-21 -84 -90 -84q-66 0 -66 59z" />
<glyph unicode="N" horiz-adv-x="1337" d="M6 66l144 1364q9 90 81 90q57 0 101 -74l674 -1176l122 1170q9 78 82 78q68 0 68 -62l-141 -1366q-9 -90 -82 -90q-60 0 -97 61l-679 1172l-123 -1155q-9 -78 -80 -78q-70 0 -70 66z" />
<glyph unicode="O" horiz-adv-x="1499" d="M74 666q0 131 32.5 260.5t97 244.5t152 203.5t206.5 140.5t253 52q145 0 259 -56.5t183.5 -153t105.5 -218t36 -258.5q0 -132 -33 -262.5t-98.5 -245t-155 -203t-210 -139.5t-255.5 -51q-114 0 -209.5 37t-161.5 101.5t-112.5 152t-68 187t-21.5 208.5zM233 680 q0 -89 16.5 -169.5t52 -151t86 -122t122.5 -81t158 -29.5q113 0 209 47t161 123t111 173.5t67 197.5t21 196q0 111 -26.5 208t-79 174.5t-138 122t-194.5 44.5q-112 0 -207 -47t-160 -122.5t-111 -172.5t-67 -196.5t-21 -194.5z" />
<glyph unicode="P" horiz-adv-x="1261" d="M6 63l144 1373q9 82 92 82h434q199 0 328 -115t129 -299q0 -108 -47.5 -204t-124 -162t-173.5 -104t-196 -38h-381l-55 -520q-9 -76 -80 -76q-70 0 -70 63zM227 745h373q156 0 266.5 101t110.5 246q0 129 -94 202.5t-250 73.5h-340z" />
<glyph unicode="Q" horiz-adv-x="1521" d="M74 666q0 131 32.5 260.5t97 244.5t152 203.5t206.5 140.5t253 52q145 0 259 -56.5t183.5 -153t105.5 -218t36 -258.5q0 -326 -187 -598q17 -18 123 -154q17 -24 17 -47v-8q-3 -30 -23.5 -51t-52.5 -21q-30 0 -45 18l-127 144q-211 -184 -457 -184q-114 0 -209.5 37 t-161.5 101.5t-112.5 152t-68 187t-21.5 208.5zM236 680q0 -111 27 -209.5t79 -176t136.5 -122.5t191.5 -45q177 0 340 149l-88 99q-23 26 -23 53q3 41 30.5 67.5t59.5 26.5t51 -22l84 -94q115 206 115 454q0 112 -26.5 209.5t-78.5 175.5t-137.5 123t-195.5 45 q-112 0 -207 -47t-159.5 -122.5t-110.5 -172.5t-67 -196.5t-21 -194.5z" />
<glyph unicode="R" horiz-adv-x="1308" d="M8 74l142 1362q9 82 124 82h451q202 0 317 -88t115 -252q0 -159 -104.5 -278.5t-253.5 -158.5l221 -604q10 -33 10 -59v-12q-3 -31 -22 -49.5t-52 -18.5q-48 0 -65 41l-256 688h-410l-67 -635q-9 -92 -82 -92q-68 0 -68 74zM240 877h434q84 0 161 33.5t127 98.5t50 146 q0 71 -44.5 121t-107 71t-133.5 21h-434z" />
<glyph unicode="S" horiz-adv-x="1091" d="M16 158q4 42 23 61t55 19q32 0 68 -25q118 -76 260 -76q147 0 253.5 99.5t106.5 240.5q0 78 -59.5 140.5t-202.5 132.5q-38 19 -54 27.5t-53 28t-55 31t-50 32t-49 37t-41 39.5t-37 45t-26 48t-18.5 55t-5.5 60q0 89 42.5 168.5t109.5 132t149.5 83t163.5 30.5 q182 0 313 -107q49 -38 49 -88q-3 -36 -27.5 -63t-56.5 -27q-27 0 -73 37q-100 84 -226 84q-113 0 -188.5 -62t-83.5 -145q0 -28 9.5 -55t23.5 -48t37.5 -42.5t44 -36.5t50 -32t49.5 -27t48.5 -24t40.5 -20q169 -88 259.5 -188t90.5 -238q0 -151 -80.5 -269.5t-206 -179.5 t-266.5 -61q-194 0 -342 103q-45 36 -45 80z" />
<glyph unicode="T" horiz-adv-x="1056" d="M150 1432q8 86 90 86h755q70 0 70 -62q-6 -88 -84 -88h-303l-135 -1282q-9 -86 -82 -86q-70 0 -70 70l135 1298h-301q-75 0 -75 64z" />
<glyph unicode="U" horiz-adv-x="1366" d="M53 475q0 42 97 955q9 88 92 88q73 0 73 -72q-92 -877 -92 -930q0 -373 383 -373q72 0 131.5 12.5t115 44.5t96 83t69 131.5t39.5 185.5l88 830q9 88 92 88q76 0 76 -72l-90 -862q-14 -132 -56 -236.5t-103.5 -173t-142 -114t-167.5 -64.5t-185 -19q-113 0 -203.5 26.5 t-162 83.5t-111 155.5t-39.5 232.5z" />
<glyph unicode="V" horiz-adv-x="1320" d="M152 1438v10q6 74 86 74q59 0 71 -62l297 -1206l543 1206q28 60 78 60q30 0 49.5 -25t19.5 -57q1 -14 -17.5 -60.5t-70 -161t-108.5 -238t-171 -371t-220 -480.5q-59 -127 -129 -127q-68 0 -95 109l-331 1302q-2 8 -2 27z" />
<glyph unicode="W" horiz-adv-x="1822" d="M150 1434q0 6 2 10q3 34 27.5 55t56.5 21q67 0 73 -76l80 -1239l477 1237q31 78 117 78t98 -78l209 -1235l334 1233q21 84 94 84q31 0 51.5 -20t20.5 -52v-8l-381 -1340q-13 -46 -52.5 -75t-86.5 -29q-42 0 -75.5 23t-41.5 71l-199 1186l-442 -1153q-25 -65 -66 -98 t-84 -33q-45 0 -78.5 33.5t-37.5 87.5l-94 1308q-2 2 -2 9z" />
<glyph unicode="X" horiz-adv-x="1325" d="M4 47v10q6 32 33 70l532 717l-346 555q-12 21 -12 43v8q3 30 25.5 50t52.5 20q41 0 65 -37l320 -514l383 512q30 37 67 37q28 0 48 -20t20 -48q-3 -29 -23 -53l-419 -559l397 -707q20 -36 20 -68v-8q-6 -57 -65 -57q-46 0 -72 45l-391 670l-498 -668q-38 -47 -84 -47 q-53 0 -53 49z" />
<glyph unicode="Y" horiz-adv-x="1132" d="M152 1436v12q6 72 73 72q42 0 60 -43l284 -605l383 601q35 47 78 47q62 0 62 -56v-10q-3 -24 -17 -43l-444 -698l-66 -625q-9 -88 -84 -88q-69 0 -69 72v16l65 625l-317 682q-8 19 -8 41z" />
<glyph unicode="Z" horiz-adv-x="1198" d="M8 68v18q3 39 31 80l924 1202h-713q-72 0 -72 64v10q9 76 86 76h823q50 0 73.5 -16.5t23.5 -43.5q-2 -43 -51 -106l-924 -1202h784q72 0 72 -58v-14q-6 -78 -86 -78h-907q-64 0 -64 68z" />
<glyph unicode="[" horiz-adv-x="522" d="M-2 -27l154 1479q9 100 94 100h149q60 0 60 -57q0 -2 -1 -7.5t-1 -8.5q-6 -62 -70 -62h-86l-147 -1413h86q57 0 57 -51v-10q-9 -70 -74 -70h-149q-72 0 -72 80v20z" />
<glyph unicode="\" horiz-adv-x="940" d="M156 1475v8q3 31 27.5 48t58.5 17q28 0 40.5 -17.5t26.5 -62.5l410 -1396q2 -6 2 -23q-3 -27 -24 -45t-50 -18q-63 0 -82 69l-407 1397q-2 8 -2 23z" />
<glyph unicode="]" horiz-adv-x="522" d="M-6 -70q0 3 1 9.5t1 9.5q6 55 57 55h97l145 1399q-5 0 -33.5 -1t-52.5 -1q-55 0 -55 53v12q6 70 69 70h154q74 0 74 -76q0 -16 -2 -24l-154 -1463q-9 -100 -92 -100h-154q-55 0 -55 57z" />
<glyph unicode="^" d="M123 608q3 35 24 70l543 807q29 51 88 51q57 0 80 -51l354 -807q11 -29 11 -51v-11q-3 -34 -25.5 -51.5t-56.5 -17.5q-29 0 -48.5 19t-39.5 63l-297 690l-461 -690q-32 -48 -50 -65t-48 -17q-31 0 -52.5 16t-21.5 45z" />
<glyph unicode="_" horiz-adv-x="1060" d="M-94 -195q6 68 82 68h1020q37 0 54 -15.5t17 -54.5q-6 -65 -86 -65h-1020q-35 0 -51 15t-16 52z" />
<glyph unicode="`" horiz-adv-x="528" d="M117 1124q0 21 10 41l172 320q13 25 35.5 41t48.5 16q35 0 55.5 -17t20.5 -48v-9q0 -2 -6 -20l-172 -315q-12 -22 -20.5 -34.5t-25.5 -25t-36 -12.5q-37 0 -59.5 18t-22.5 45z" />
<glyph unicode="a" horiz-adv-x="1288" d="M37 473q0 97 23 195.5t69.5 189t110.5 161.5t153 113t189 42q99 0 189.5 -50.5t123.5 -140.5l8 84q9 80 86 80q66 0 66 -64q-86 -829 -86 -847q0 -59 32 -87t101 -28q82 0 82 -55v-13q-6 -71 -97 -71q-125 0 -186.5 49.5t-75.5 148.5q-67 -89 -165.5 -148t-204.5 -59 q-105 0 -186.5 40.5t-131.5 110.5t-75 158.5t-25 190.5zM195 485q0 -103 28 -185t91 -134.5t153 -52.5q75 0 141 35.5t111 92t77.5 127t48 142t15.5 135.5q0 176 -84 278.5t-205 102.5q-63 0 -118 -26t-95 -70t-72 -99t-51.5 -116.5t-29.5 -119.5t-10 -110z" />
<glyph unicode="b" horiz-adv-x="1148" d="M4 43q0 3 1 9t1 9l164 1436q9 80 84 80q68 0 68 -64v-16l-72 -559q43 96 150 166t212 70q104 0 186 -43.5t131.5 -117t75 -165.5t25.5 -195q0 -96 -23 -192.5t-70 -184t-111 -154.5t-152.5 -107t-188.5 -40q-111 0 -196.5 54t-118.5 149l-12 -119q-4 -37 -30 -59.5 t-58 -22.5q-66 0 -66 66zM215 500q0 -60 10.5 -114.5t33.5 -103.5t57 -85t84.5 -57t111.5 -21q75 0 137.5 35.5t102.5 91t68 126t40 138.5t12 131q0 74 -14 139.5t-44 122t-83.5 90t-124.5 33.5q-78 0 -144.5 -34.5t-111 -89.5t-76 -125t-45.5 -140.5t-14 -136.5z" />
<glyph unicode="c" horiz-adv-x="1034" d="M55 494q0 170 78 319.5t218.5 241.5t307.5 92q148 0 240 -45q28 -12 45 -30.5t17 -37.5q-3 -38 -24 -61t-52 -23q-9 0 -21 4q-41 19 -104 33t-113 14q-97 0 -181 -44t-138.5 -115t-85.5 -158t-31 -174q0 -164 99.5 -275.5t250.5 -111.5q126 0 236 70q13 8 28 8 q21 0 37.5 -18t16.5 -42q-2 -42 -56 -82q-135 -82 -282 -82q-213 0 -349.5 146t-136.5 371z" />
<glyph unicode="d" horiz-adv-x="1269" d="M53 473q0 97 23 195.5t69.5 189t110.5 161.5t153 113t189 42q99 0 189.5 -50.5t123.5 -140.5l58 516q9 80 86 80q65 0 65 -63v-17q-78 -680 -132 -1141q-15 -125 -15 -129q0 -57 32 -82.5t99 -25.5q82 0 82 -55v-13q-6 -71 -96 -71q-125 0 -187 49.5t-76 146.5 q-68 -91 -159 -148t-197 -57q-105 0 -186.5 40.5t-131.5 110.5t-75 158.5t-25 190.5zM211 483q0 -103 28 -185t91 -134.5t153 -52.5q76 0 141.5 35.5t110.5 92t77 127t47 141.5t15 136q0 175 -82.5 278t-203.5 103q-75 0 -139 -37t-106.5 -95.5t-73 -131.5t-44.5 -143.5 t-14 -133.5z" />
<glyph unicode="e" horiz-adv-x="1206" d="M55 487q0 126 41 249.5t112.5 221t179 158t230.5 60.5q202 0 313 -119.5t111 -317.5q0 -241 -137 -241h-692q0 -166 93 -268.5t235 -102.5q89 0 152 22t136 82q46 37 93 37q61 0 61 -59v-10q-3 -26 -18 -41q-168 -183 -441 -183q-112 0 -202 40t-148 109.5t-88.5 162 t-30.5 200.5zM231 645h654q2 18 2 51q0 143 -74.5 235.5t-204.5 92.5q-146 0 -254 -111.5t-123 -267.5z" />
<glyph unicode="f" horiz-adv-x="770" d="M-104 -428q6 76 96 76q94 0 127.5 55.5t46.5 190.5l117 1087h-97q-75 0 -75 61q6 93 92 93h96q10 96 29.5 162.5t57 119t99.5 78t152 25.5q84 0 84 -64q-9 -76 -98 -76q-50 0 -81.5 -14t-50 -48t-27 -74t-15.5 -109q65 0 131 2q75 0 75 -68q-4 -47 -27.5 -68.5 t-68.5 -21.5h-127q-32 -308 -56 -527.5t-33 -300t-16 -143t-12 -114.5q-10 -96 -30 -162.5t-57.5 -119.5t-99.5 -78.5t-151 -25.5q-81 0 -81 64z" />
<glyph unicode="g" horiz-adv-x="1243" d="M43 -303q3 38 25.5 63t56.5 25q29 0 63 -23q120 -71 250 -71q96 0 176 38t138 123t71 207l11 105q-48 -93 -142 -140t-196 -47q-108 0 -193.5 41.5t-139 113.5t-81 163.5t-27.5 196.5q0 102 26 201.5t76 185.5t118 152.5t158 104.5t190 38q95 0 183.5 -57t113.5 -136 l14 131q6 68 80 68q69 0 69 -58l-108 -1044q-13 -130 -65.5 -235.5t-128.5 -171t-166.5 -100t-186.5 -34.5q-215 0 -352 92q-33 21 -33 68zM213 504q0 -182 86.5 -283.5t208.5 -101.5q77 0 142 35t107.5 91t72.5 127t43.5 141.5t13.5 135.5q0 178 -84 276.5t-207 98.5 q-75 0 -140 -34.5t-108.5 -89t-74.5 -124t-45.5 -139t-14.5 -133.5z" />
<glyph unicode="h" horiz-adv-x="1054" d="M6 63l164 1436q9 80 82 80q67 0 67 -63l-65 -521q59 89 143 132.5t176 43.5q146 0 256.5 -98t110.5 -250q0 -26 -78 -749q-6 -74 -82 -74q-67 0 -67 63v11q69 650 69 690q0 125 -70.5 192.5t-172.5 67.5q-73 0 -139.5 -33.5t-116 -105t-60.5 -168.5l-67 -643 q-6 -74 -82 -74q-68 0 -68 63z" />
<glyph unicode="i" horiz-adv-x="616" d="M55 223q0 28 88 864q9 76 84 76q72 0 72 -76q-88 -823 -88 -843q0 -123 129 -123q82 0 82 -55v-13q-6 -71 -96 -71q-136 0 -203.5 63.5t-67.5 177.5zM150 1473q3 51 35.5 82.5t76.5 31.5q41 0 66.5 -28t25.5 -74q-4 -43 -37.5 -73t-76.5 -30q-39 0 -64.5 26t-25.5 65z " />
<glyph unicode="j" horiz-adv-x="399" d="M-256 -420q0 -72 82 -72q89 0 151.5 25.5t101 78t59 120t30.5 162.5l125 1208q0 59 -68 59q-77 0 -86 -74l-125 -1193q-7 -69 -15.5 -109t-27 -74.5t-50 -48.5t-81.5 -14q-90 0 -96 -68zM150 1473q3 51 35.5 82.5t76.5 31.5q41 0 66.5 -28t25.5 -74q-4 -43 -37.5 -73 t-76.5 -30q-39 0 -64.5 26t-25.5 65z" />
<glyph unicode="k" horiz-adv-x="972" d="M6 63l156 1438q9 76 84 76q65 0 65 -59l-98 -883l506 514q15 18 51 18q28 0 48 -19t20 -48q-1 -17 -9 -33t-15.5 -24.5t-25.5 -26.5l-268 -283l260 -586q2 -5 9.5 -19t11.5 -26t4 -24q0 -37 -22.5 -59.5t-53.5 -22.5q-47 0 -70 45l-264 604l-200 -203l-39 -368 q-6 -74 -82 -74q-68 0 -68 63z" />
<glyph unicode="l" horiz-adv-x="520" d="M25 211q0 6 17 163q50 481 118 1129q9 78 82 78q69 0 69 -63q-91 -864 -132 -1240q-5 -45 -5 -47q0 -56 32 -83t101 -27q82 0 82 -55v-13q-6 -71 -96 -71q-268 0 -268 229z" />
<glyph unicode="m" horiz-adv-x="1691" d="M6 66l105 999q9 90 86 90q65 0 65 -68l-8 -96q51 82 138.5 132.5t178.5 50.5q101 0 179.5 -59.5t107.5 -156.5q59 97 163.5 156.5t219.5 59.5q148 0 247 -89.5t99 -232.5q0 -26 -80 -774q-6 -74 -82 -74q-71 0 -71 64q73 681 73 716q0 100 -56 166t-154 66 q-127 0 -217.5 -94.5t-104.5 -227.5l-66 -616q-9 -76 -79 -76t-70 64q74 692 74 716q0 101 -57.5 165.5t-157.5 64.5q-127 0 -215.5 -92.5t-102.5 -225.5l-65 -616q-9 -76 -80 -76q-70 0 -70 64z" />
<glyph unicode="n" horiz-adv-x="1048" d="M6 63l107 1010q6 80 82 80q67 0 67 -68l-8 -90q58 89 144.5 134t181.5 45q145 0 252.5 -96.5t107.5 -252.5q0 -28 -78 -751q-6 -74 -82 -74q-67 0 -67 63q69 660 69 701q0 125 -70.5 192.5t-172.5 67.5q-73 0 -139.5 -33.5t-116 -105t-60.5 -168.5l-67 -643 q-6 -74 -82 -74q-68 0 -68 63z" />
<glyph unicode="o" horiz-adv-x="1177" d="M55 489q0 102 25.5 201.5t75 186.5t116.5 153.5t156.5 105t189.5 38.5q86 0 158 -28.5t122.5 -77.5t86 -116t52 -143.5t16.5 -159.5q0 -128 -40 -249t-111.5 -215t-178.5 -151t-231 -57q-107 0 -192 41.5t-137.5 113t-80 162.5t-27.5 195zM217 518q0 -76 16.5 -144.5 t50 -127t91.5 -93t133 -34.5q76 0 141 31t109.5 81.5t76 115.5t46 132.5t14.5 132.5q0 60 -10 118t-33 112t-56.5 94.5t-83 65t-110.5 24.5q-78 0 -143.5 -32.5t-109 -85t-74.5 -120t-44.5 -136t-13.5 -134.5z" />
<glyph unicode="p" horiz-adv-x="1148" d="M-41 -406q0 2 6 61q47 448 150 1439q6 80 84 80q67 0 67 -68l-16 -168q43 96 150 166t212 70q104 0 186 -43.5t131.5 -117t75 -165.5t25.5 -195q0 -96 -23 -192.5t-70 -184t-111 -154.5t-152.5 -107t-188.5 -40q-111 0 -196.5 54t-118.5 149l-59 -567q-4 -37 -30 -59.5 t-58 -22.5q-64 0 -64 65zM219 492q0 -76 17 -141.5t51 -119.5t92.5 -85t134.5 -31t139.5 35t103.5 90.5t68 126t40 138.5t12 132q0 74 -14.5 139.5t-44 122t-83.5 90t-125 33.5q-79 0 -145.5 -35t-111 -90.5t-75.5 -126t-45 -141.5t-14 -137z" />
<glyph unicode="q" horiz-adv-x="1210" d="M53 473q0 97 23 195.5t69.5 189t110.5 161.5t153 113t189 42q99 0 189.5 -50.5t123.5 -140.5l13 111q6 80 86 80q65 0 65 -68l-157 -1509q-6 -68 -82 -68q-70 0 -70 55l61 594q-68 -91 -159 -148t-197 -57q-105 0 -186.5 40.5t-131.5 110.5t-75 158.5t-25 190.5zM209 485 q0 -103 28 -185t91 -134.5t153 -52.5q75 0 141 35.5t111 92t77.5 127t48 142t15.5 135.5q0 176 -83.5 278.5t-204.5 102.5q-75 0 -139 -37t-106.5 -95.5t-73 -131.5t-44.5 -143.5t-14 -133.5z" />
<glyph unicode="r" horiz-adv-x="827" d="M6 63l107 1010q6 80 82 80q67 0 67 -68l-10 -110q63 97 166 148t213 51q71 0 105 -26t34 -63q-3 -36 -28 -61t-60 -25q-26 0 -63 7.5t-74 7.5q-104 0 -207 -91t-115 -206l-67 -643q-6 -74 -82 -74q-68 0 -68 63z" />
<glyph unicode="s" horiz-adv-x="1060" d="M31 145q0 38 22 68.5t58 30.5q27 0 57 -23q127 -88 272 -88q45 0 87 9t81.5 28t65.5 54t31 83q0 37 -17.5 67.5t-51.5 53.5t-65.5 38t-76.5 32q-173 66 -239 106q-140 84 -140 205q0 179 121 273t329 94q178 0 309 -74q31 -19 31 -60q-3 -42 -25.5 -63t-54.5 -21 q-33 0 -123.5 33t-158.5 33q-102 0 -178 -43.5t-86 -134.5q8 -45 44.5 -79.5t75 -51t94.5 -37t78 -31.5q69 -28 118 -55t95.5 -65.5t70.5 -90t24 -114.5q-10 -91 -54.5 -160t-111 -108t-141 -58t-154.5 -19q-190 0 -365 121q-22 16 -22 47z" />
<glyph unicode="t" horiz-adv-x="763" d="M111 1055q6 78 71 78h76l16 167q9 74 82 74q68 0 68 -59l-16 -182h180q71 0 71 -60q-6 -80 -84 -80h-184q-72 -685 -72 -729q0 -75 28.5 -109t103.5 -34q81 0 81 -55v-13q-6 -71 -96 -71q-147 0 -206.5 69t-59.5 207q0 50 74 737h-66q-67 0 -67 60z" />
<glyph unicode="u" horiz-adv-x="1095" d="M43 346q0 53 70 725q9 76 82 76q35 0 51 -17t16 -59q-63 -632 -63 -674q0 -82 18 -138.5t51.5 -85t71 -39.5t86.5 -11q59 0 119 29.5t112 84t89.5 140.5t48.5 190l53 512q7 80 78 80q65 0 65 -63l-110 -1057q-6 -68 -80 -68q-70 0 -70 56l14 151q-76 -106 -168 -159.5 t-186 -53.5q-71 0 -131.5 21.5t-110 65.5t-78 119.5t-28.5 174.5z" />
<glyph unicode="v" horiz-adv-x="1011" d="M111 1067q4 33 27.5 52.5t56.5 19.5q58 0 77 -90l174 -783l342 785q40 88 103 88q30 0 46.5 -15.5t16.5 -44.5q0 -25 -8 -45l-436 -973q-27 -61 -96 -61q-61 0 -76 61l-225 971q-2 12 -2 35z" />
<glyph unicode="w" horiz-adv-x="1748" d="M111 1051q6 86 84 86q61 0 79 -64l170 -817l361 807q15 34 42.5 53t57.5 19q33 0 62.5 -19.5t33.5 -52.5l179 -799l336 811q27 64 92 64q61 0 61 -58q0 -30 -18 -71q0 -18 -406 -932q-34 -76 -98 -76q-62 0 -80 82l-190 805l-351 -811q-35 -78 -104 -78q-76 0 -94 84 q-217 938 -217 967z" />
<glyph unicode="x" horiz-adv-x="1097" d="M6 57q3 49 43 99l391 469l-256 376q-16 29 -16 54q3 35 28.5 57.5t57.5 22.5q51 0 74 -45l204 -357l302 359q33 45 81 45q31 0 51.5 -19t20.5 -47q-3 -35 -31 -67l-344 -396l295 -444q29 -45 29 -88q-6 -76 -72 -76q-56 0 -96 63l-256 418l-358 -420q-51 -57 -95 -57 q-53 0 -53 53z" />
<glyph unicode="y" horiz-adv-x="1038" d="M-43 -428q6 76 96 76q36 0 68.5 14.5t56.5 33.5t48 55t38.5 61t32.5 71.5t25 66.5t22 64l-229 996q-4 28 -4 37q6 88 79 88q65 0 80 -72l183 -836l370 846q27 64 92 64q66 0 66 -60q-3 -44 -10 -61l-471 -1014q-110 -239 -166.5 -329.5t-134.5 -135.5q-73 -29 -160 -29 q-82 0 -82 64z" />
<glyph unicode="z" horiz-adv-x="1050" d="M6 66v8q5 36 47 86l662 829h-510q-68 0 -68 66q3 48 22.5 64t61.5 16h625q84 0 84 -54q-1 -29 -13 -51t-40 -57l-662 -830h576q67 0 67 -59q-3 -48 -22.5 -66t-59.5 -18h-657q-113 0 -113 66z" />
<glyph unicode="{" horiz-adv-x="770" d="M74 719q1 8 3.5 14.5t7.5 12.5t9 10t12.5 8.5t13 7.5t15.5 7t15.5 5.5t17 5.5t16.5 5q116 46 146 319q8 90 10 172q6 61 24.5 106t44.5 72.5t64 43.5t77.5 22t90.5 6q24 0 41.5 -17.5t17.5 -39.5q-6 -60 -94 -60q-66 0 -94 -41t-35 -114q-3 -31 -5.5 -88.5t-4.5 -75.5 q-30 -292 -213 -387q137 -52 137 -264q0 -60 -14.5 -166t-14.5 -156q0 -58 26 -90t91 -35q62 -3 62 -45v-8q-6 -60 -72 -60q-77 0 -130 15t-80.5 42.5t-38.5 58.5t-11 71q0 64 19.5 183t19.5 179q0 172 -78 213q-5 1 -19.5 4t-20 4.5t-17 5t-16.5 8t-11.5 11t-9 15.5 t-2.5 20z" />
<glyph unicode="|" horiz-adv-x="372" d="M2 33l164 1552q9 88 84 88q65 0 65 -69l-163 -1565q-9 -76 -82 -76q-68 0 -68 70z" />
<glyph unicode="}" horiz-adv-x="770" d="M-4 -51q6 50 72 53q36 1 63.5 14t44 36t27 48.5t15 61t6.5 62.5t3.5 63t3.5 55q7 65 18.5 116t34 105t62 92.5t94.5 57.5q-135 79 -135 299q0 61 16.5 155t16.5 136q0 116 -102 116q-82 0 -82 47q3 28 24 49t47 21q59 0 101.5 -8.5t79 -30t55 -63t18.5 -103.5 q0 -57 -17.5 -164t-17.5 -161q0 -174 82 -211q4 -2 16 -6t17 -6t15.5 -6.5t15.5 -8t12 -9t10.5 -11t6 -13t2.5 -16.5q-1 -13 -7 -23.5t-12 -16.5t-20 -11t-21 -7t-26 -5.5t-23 -4.5q-37 -20 -64.5 -59.5t-41.5 -83t-23 -102.5t-12 -103.5t-6 -101.5t-5 -82q-4 -38 -13 -68.5 t-30 -62t-53.5 -52t-86 -34t-124.5 -13.5q-57 0 -57 50v10z" />
<glyph unicode="~" horiz-adv-x="1224" d="M47 451q8 81 110 167.5t195 86.5q57 0 120 -24.5t108 -53.5t97.5 -53.5t90.5 -24.5q31 0 57 16t45 38.5t38 44.5t43.5 38t52.5 16q63 0 63 -71q0 -58 -60.5 -118t-137.5 -96t-130 -36q-54 0 -110.5 24t-97 53t-93.5 53t-100 24q-62 0 -125 -74q-68 -80 -107 -80 q-59 0 -59 70z" />
<glyph unicode="&#xa3;" horiz-adv-x="1353" d="M82 68q6 49 80 120q112 107 171.5 204.5t59.5 211.5q0 47 -10 109h-233q-68 0 -68 57q6 92 84 92h184q-80 136 -80 271q0 79 28.5 147t76 115.5t110 81t131 49.5t138.5 16q88 0 168.5 -24.5t146 -71t104.5 -120.5t39 -165q-3 -34 -27 -59t-55 -25q-52 0 -73 64 q-3 78 -50 137t-116.5 87t-147.5 28q-129 0 -211.5 -76t-82.5 -197q0 -124 67 -258h275q65 0 65 -63q-8 -86 -82 -86h-235q16 -60 16 -129q0 -234 -248 -428h762q68 0 68 -62q-3 -48 -23 -69t-59 -21h-895q-78 0 -78 64z" />
<glyph unicode="&#xa4;" horiz-adv-x="1609" d="M80 80q5 47 72 100l217 162q-15 52 -15 119q0 140 68 262l-197 172q-49 46 -49 100q3 27 24.5 41.5t47.5 14.5q35 0 76 -35l192 -178q125 104 287 104q153 0 260 -98l225 172q43 35 80 35q25 0 44.5 -14t19.5 -42q-5 -50 -74 -100l-215 -160q35 -82 35 -162 q0 -123 -62 -247l168 -146q51 -47 51 -100q-3 -27 -25 -41t-48 -14q-43 0 -74 34l-162 146q-64 -61 -145.5 -93t-161.5 -32q-86 0 -162 35t-127 102l-207 -158q-42 -34 -82 -34q-25 0 -43 13.5t-18 41.5zM487 471q0 -126 70.5 -195t173.5 -69q132 0 221.5 104t89.5 246 q0 121 -74 190.5t-177 69.5q-131 0 -217.5 -102t-86.5 -244z" />
<glyph unicode="&#xa5;" horiz-adv-x="1230" d="M106 897q3 40 30.5 65t68.5 25h155l-198 432q-8 19 -8 41q3 38 25 61t50 23q39 0 60 -43l305 -622l436 622q27 43 74 43q59 0 59 -49q0 -33 -26 -76l-301 -432h165q80 0 80 -63q-3 -48 -26.5 -69t-69.5 -21h-258l-84 -121l-8 -84h266q82 0 82 -68q-8 -86 -98 -86h-267 l-43 -403q-9 -86 -83 -86q-70 0 -70 69l43 420h-266q-80 0 -80 62q3 42 29 67t67 25h266l8 84l-57 121h-244q-82 0 -82 63z" />
<glyph unicode="&#xa6;" horiz-adv-x="372" d="M6 63l70 674q4 42 27.5 68t56.5 26q31 0 49 -16t18 -47l-71 -694q-6 -74 -82 -74q-68 0 -68 63zM102 967l66 632q4 43 27 69t55 26q30 0 48.5 -17.5t18.5 -48.5l-65 -645q-9 -76 -84 -76q-66 0 -66 60z" />
<glyph unicode="&#xa7;" horiz-adv-x="1069" d="M59 25v8q4 34 28 55t54 21q23 0 43 -13q36 -22 104 -37.5t138 -15.5q48 0 89 8.5t77 26t59 49.5t27 76q0 20 -7 37.5t-26 34t-33 27.5t-48.5 27t-51 23t-61 25t-60.5 24q-307 122 -307 312q0 52 26.5 93.5t73.5 41.5q33 0 57.5 -24.5t24.5 -61.5q0 -49 25 -88t66 -64.5 t93.5 -50t107.5 -43.5t107.5 -45t93.5 -54t66 -71.5t25 -97.5q0 -70 -26.5 -130.5t-71.5 -103.5t-103 -73.5t-122 -45t-128 -14.5q-168 0 -307 80q-33 16 -33 64zM135 1198q0 70 26.5 130.5t71.5 103.5t103 73.5t122 45t128 14.5q167 0 309 -80q31 -16 31 -64v-8 q-3 -34 -27 -55t-55 -21q-24 0 -43 13q-36 22 -104 37.5t-138 15.5q-48 0 -89 -8.5t-77 -26t-59 -49.5t-27 -76q0 -16 4.5 -30t15.5 -27t22 -24t30.5 -22.5t34.5 -19.5t41.5 -19.5t43 -18.5t48 -19t47.5 -19q307 -122 307 -311q0 -52 -26.5 -93.5t-73.5 -41.5 q-33 0 -57.5 24.5t-24.5 61.5v29q0 49 -32 87.5t-83.5 63.5t-114 47t-125 47t-114 54.5t-83.5 77t-32 108.5z" />
<glyph unicode="&#xa8;" horiz-adv-x="808" d="M139 1319q4 51 36.5 83t76.5 32q40 0 66 -26t26 -65q-4 -51 -36.5 -82.5t-76.5 -31.5q-40 0 -66 26t-26 64zM549 1319q4 51 36.5 83t76.5 32q40 0 66 -26t26 -65q-4 -51 -36.5 -82.5t-76.5 -31.5q-40 0 -66 26t-26 64z" />
<glyph unicode="&#xa9;" horiz-adv-x="1775" d="M72 649q0 182 67.5 343.5t182.5 276.5t274 182t336 67q208 0 366 -86.5t243 -241t85 -352.5q0 -182 -70 -344t-187 -275.5t-274.5 -179.5t-328.5 -66q-208 0 -366 86t-243 239.5t-85 350.5zM217 664q0 -243 156 -397t411 -154q149 0 279 59t219 157t140 225.5t51 262.5 q0 247 -152 405t-406 158q-150 0 -282 -60.5t-222 -160.5t-142 -229.5t-52 -265.5zM420 692q0 137 66.5 262t183.5 203t252 78q92 0 190 -45q49 -27 49 -62q-3 -31 -21.5 -52t-43.5 -21q-9 0 -17 4q-35 16 -86.5 27.5t-91.5 11.5q-79 0 -145.5 -35.5t-109 -93t-66 -127 t-23.5 -140.5q0 -124 71 -213.5t185 -89.5q72 0 123 19q71 22 76 22q55 0 55 -49q-3 -46 -39 -72q-71 -53 -213 -53q-182 0 -288.5 122.5t-106.5 303.5z" />
<glyph unicode="&#xab;" horiz-adv-x="903" d="M57 553q3 35 35 76l234 334q18 24 49 24q28 0 49.5 -20t21.5 -47q0 -21 -12 -41l-233 -318q57 -110 174 -360q0 -3 1 -8t1 -7q-1 -20 -30.5 -37.5t-59.5 -17.5q-31 0 -47 25l-162 333q-21 41 -21 64zM377 551v8q3 28 31 70l239 334q19 22 53 22q76 0 76 -55v-8 q-3 -22 -18 -43l-238 -318q10 -17 176 -360q2 -4 2 -15q-1 -20 -30.5 -37.5t-59.5 -17.5q-31 0 -47 25l-168 333q-16 37 -16 62z" />
<glyph unicode="&#xac;" horiz-adv-x="1345" d="M59 551v14q3 32 30 56t67 24h948q76 0 76 -78v-18l-33 -303q-9 -88 -82 -88q-31 0 -52.5 20.5t-21.5 54.5v13l27 243h-879q-80 0 -80 62z" />
<glyph unicode="&#xad;" horiz-adv-x="1570" />
<glyph unicode="&#xae;" horiz-adv-x="1773" d="M76 672q0 180 69.5 341.5t186 275.5t273.5 180.5t327 66.5q155 0 285 -50.5t219 -140.5t138.5 -215.5t49.5 -273.5q0 -181 -68.5 -343t-184.5 -276t-273 -180.5t-328 -66.5q-155 0 -285 51t-219.5 141t-139.5 216t-50 274zM225 686q0 -162 65 -288t195 -199.5t308 -73.5 q151 0 281 60t216.5 160t135.5 228.5t49 266.5q0 245 -151.5 401t-405.5 156q-149 0 -280 -60t-220.5 -158.5t-141 -227.5t-51.5 -265zM498 356l82 789q6 58 34 74q20 10 58 10h301q126 0 203 -80q63 -63 63 -154q-10 -111 -72.5 -176t-181.5 -96q19 -32 47.5 -94t42.5 -88 q8 -15 20.5 -38.5t18.5 -35t15 -28.5t13 -26t9 -19t6.5 -16.5t1.5 -10.5q0 -31 -24 -47.5t-60 -16.5q-29 0 -46.5 15.5t-29.5 48.5l-163 356h-166l-39 -356q-6 -64 -76 -64q-57 0 -57 53zM682 840h233q73 0 120 38t52 95q0 63 -37.5 101t-105.5 38h-233z" />
<glyph unicode="&#xb0;" horiz-adv-x="624" d="M147 1411q0 95 67.5 162t160.5 67q85 0 134.5 -51t49.5 -131q0 -93 -68 -161t-159 -68q-82 0 -133.5 51.5t-51.5 130.5zM252 1419q0 -38 24 -63t68 -25q43 0 74.5 33t36.5 80q0 39 -24 65.5t-66 26.5q-47 0 -77.5 -32t-35.5 -85z" />
<glyph unicode="&#xb1;" d="M70 68q5 39 31 63.5t67 24.5h915q80 0 80 -64q-3 -48 -26 -69t-68 -21h-915q-84 0 -84 66zM135 721q0 46 25 72t69 26h373l33 326q9 80 86 80q33 0 56.5 -19.5t23.5 -50.5l-33 -336h373q43 0 67.5 -21t24.5 -53v-10q-9 -78 -111 -78h-372l-37 -346q-3 -34 -31 -56 t-64 -22q-71 0 -71 66v12l37 346h-373q-76 0 -76 64z" />
<glyph unicode="&#xb2;" horiz-adv-x="665" d="M29 770v4q0 15 18 37l320 379q59 73 59 143q0 49 -36 78t-85 29q-55 0 -97.5 -36t-49.5 -101q-2 -17 -14.5 -33.5t-30.5 -16.5q-19 0 -29 15.5t-10 34.5v6q10 94 82.5 152.5t160.5 58.5q78 0 135.5 -48.5t57.5 -125.5q0 -103 -94 -213l-269 -318h281q35 0 35 -33v-6 q-3 -39 -43 -39h-338q-53 0 -53 33z" />
<glyph unicode="&#xb3;" horiz-adv-x="624" d="M33 889q3 19 14 30t25 11q28 0 37 -27q29 -96 122 -96q70 0 118 47.5t48 114.5q0 50 -27 87t-79 46q-3 0 -30 1t-30 1q-43 0 -43 33v4q6 37 52 37q3 0 29 1t28 1q50 10 78 57.5t28 99.5q0 50 -28.5 79.5t-81.5 29.5q-44 0 -79.5 -30t-39.5 -73q-2 -24 -13.5 -37.5 t-31.5 -13.5q-37 0 -37 43q6 74 68 130.5t145 56.5q85 0 133.5 -49.5t48.5 -126.5q0 -111 -102 -195q94 -64 94 -176q0 -107 -73.5 -178.5t-174.5 -71.5q-77 0 -137.5 47t-60.5 117z" />
<glyph unicode="&#xb5;" horiz-adv-x="1101" d="M-43 -424l152 1485q9 76 86 76q67 0 67 -60q-41 -408 -67 -655q-2 -15 -3 -27t-2 -17.5t-1.5 -9.5t-0.5 -5.5v-2.5q0 -97 64.5 -158t163.5 -61q135 0 229 95.5t109 236.5l61 588q9 76 86 76q68 0 68 -60l-103 -989q-9 -88 -84 -88q-69 0 -69 66l4 57q2 10 2 27 q-126 -166 -338 -166q-65 0 -126 30t-93 80q-8 -86 -26.5 -253.5t-26.5 -248.5q-9 -75 -86 -75q-66 0 -66 59z" />
<glyph unicode="&#xb6;" horiz-adv-x="1146" d="M117 1110q0 108 43.5 192.5t119.5 136.5t173.5 78.5t210.5 26.5h419q27 -2 43.5 -20t16.5 -47q-3 -28 -24.5 -48t-49.5 -20h-98l-142 -1339q-3 -28 -24.5 -49t-50.5 -21q-27 0 -44.5 18t-17.5 43l142 1348h-154l-141 -1339q-3 -28 -25 -49t-51 -21q-27 0 -43.5 17.5 t-16.5 43.5l78 754q-170 0 -267 81.5t-97 213.5z" />
<glyph unicode="&#xb7;" horiz-adv-x="438" d="M74 705q4 51 37 82.5t77 31.5q40 0 65.5 -25.5t25.5 -64.5q-4 -51 -36.5 -83t-76.5 -32q-40 0 -66 26t-26 65z" />
<glyph unicode="&#xbb;" horiz-adv-x="907" d="M18 172q0 16 9 25l249 364l-174 359q-4 8 -4 14q1 23 27 41t57 18q41 0 56 -30l163 -334q19 -40 19 -64q-2 -29 -33 -76l-235 -333q-13 -23 -58 -23q-76 0 -76 39zM336 170q0 20 10 27l252 364l-170 318q-14 28 -14 55q6 59 78 59q46 0 61 -30l172 -334q16 -37 16 -62v-8 q-3 -29 -30 -70l-244 -333q-13 -23 -61 -23q-70 0 -70 37z" />
<glyph unicode="&#xbd;" horiz-adv-x="1693" d="M41 1376q3 57 63 72q229 63 242 63q18 0 30 -8.5t15 -21.5l4 -25q0 -7 -4 -53l-100 -965q-5 -30 -23 -47.5t-45 -17.5t-42 15t-15 42l98 948l-155 -43q-8 -2 -21 -2q-21 0 -34 11.5t-13 31.5zM254 37q0 7 8 35l709 1429q29 62 78 62q21 0 34 -15t13 -39q0 -25 -15 -55 l-716 -1421q-21 -43 -64 -43q-20 0 -33.5 12.5t-13.5 34.5zM909 49v6q3 26 29 58l477 567q90 108 90 213q0 73 -54 117.5t-128 44.5q-80 0 -144.5 -54.5t-74.5 -150.5q-2 -27 -21 -50.5t-49 -23.5q-27 0 -41 22t-14 52v6q10 95 66 169t134.5 111.5t161.5 37.5 q118 0 204.5 -73t86.5 -188q0 -157 -141 -321l-404 -475h422q54 0 54 -49v-9q-9 -59 -66 -59h-508q-80 0 -80 49z" />
<glyph unicode="&#x2000;" horiz-adv-x="860" />
<glyph unicode="&#x2001;" horiz-adv-x="1720" />
<glyph unicode="&#x2002;" horiz-adv-x="860" />
<glyph unicode="&#x2003;" horiz-adv-x="1720" />
<glyph unicode="&#x2004;" horiz-adv-x="573" />
<glyph unicode="&#x2005;" horiz-adv-x="430" />
<glyph unicode="&#x2006;" horiz-adv-x="286" />
<glyph unicode="&#x2007;" horiz-adv-x="286" />
<glyph unicode="&#x2008;" horiz-adv-x="215" />
<glyph unicode="&#x2009;" horiz-adv-x="344" />
<glyph unicode="&#x200a;" horiz-adv-x="95" />
<glyph unicode="&#x2010;" horiz-adv-x="792" d="M66 557q3 40 30 64t68 24h422q80 0 80 -70q-8 -86 -97 -86h-422q-81 0 -81 68z" />
<glyph unicode="&#x2011;" horiz-adv-x="792" d="M66 557q3 40 30 64t68 24h422q80 0 80 -70q-8 -86 -97 -86h-422q-81 0 -81 68z" />
<glyph unicode="&#x2012;" horiz-adv-x="792" d="M66 557q3 40 30 64t68 24h422q80 0 80 -70q-8 -86 -97 -86h-422q-81 0 -81 68z" />
<glyph unicode="&#x2013;" horiz-adv-x="1435" d="M59 551q3 42 29.5 68t67.5 26h1036q80 0 80 -70q-8 -86 -96 -86h-1037q-80 0 -80 62z" />
<glyph unicode="&#x2014;" horiz-adv-x="1841" d="M59 551q3 42 29.5 68t67.5 26h1441q80 0 80 -70q-8 -86 -96 -86h-1442q-80 0 -80 62z" />
<glyph unicode="&#x2018;" horiz-adv-x="526" d="M154 1479q3 28 29.5 47.5t58.5 19.5q44 0 59 -41l115 -360q6 -8 6 -25q-3 -27 -31.5 -49t-54.5 -22q-27 0 -47.5 21t-28.5 50l-102 334q-4 16 -4 25z" />
<glyph unicode="&#x2019;" horiz-adv-x="526" d="M117 1114q0 18 10 31l192 360q21 41 68 41q30 0 51 -17.5t21 -43.5q0 -20 -8 -31l-172 -334q-15 -29 -40.5 -50t-52.5 -21q-24 0 -46.5 20t-22.5 45z" />
<glyph unicode="&#x201a;" horiz-adv-x="526" d="M-20 -209q3 21 8 31l170 334q14 27 41 46t55 19q25 0 45 -17t20 -42q0 -21 -10 -31l-190 -360q-24 -41 -68 -41q-30 0 -50.5 17.5t-20.5 43.5z" />
<glyph unicode="&#x201c;" horiz-adv-x="860" d="M154 1479q3 28 29.5 47.5t58.5 19.5q44 0 59 -41l115 -360q6 -8 6 -25q-3 -27 -31.5 -49t-54.5 -22q-27 0 -47.5 21t-28.5 50l-102 334q-4 16 -4 25zM502 1479q3 28 29.5 47.5t58.5 19.5q44 0 59 -41l115 -360q6 -8 6 -25q-3 -27 -31.5 -49t-54.5 -22q-27 0 -47.5 21 t-28.5 50l-102 334q-4 16 -4 25z" />
<glyph unicode="&#x201d;" horiz-adv-x="860" d="M117 1114q0 18 10 31l192 360q21 41 68 41q30 0 51 -17.5t21 -43.5q0 -20 -8 -31l-172 -334q-15 -29 -40.5 -50t-52.5 -21q-24 0 -46.5 20t-22.5 45zM465 1114q0 18 10 31l193 360q21 41 67 41q30 0 51 -17.5t21 -43.5q0 -20 -8 -31l-172 -334q-15 -29 -40 -50t-52 -21 q-24 0 -47 20t-23 45z" />
<glyph unicode="&#x201e;" horiz-adv-x="858" d="M-20 -209q3 21 8 31l170 334q14 27 42 47t56 20q24 0 43.5 -18t19.5 -43q0 -21 -10 -31l-190 -360q-24 -41 -68 -41q-30 0 -50.5 17.5t-20.5 43.5zM305 -209q3 21 8 31l172 334q14 27 42 46t57 19q24 0 43.5 -17t19.5 -42q0 -21 -10 -31l-191 -360q-24 -41 -67 -41 q-30 0 -52 17t-22 44z" />
<glyph unicode="&#x2022;" horiz-adv-x="1161" d="M188 662q0 168 116.5 283.5t275.5 115.5q143 0 230 -87.5t87 -225.5q0 -109 -55.5 -201.5t-145.5 -144.5t-192 -52q-142 0 -229 87t-87 225z" />
<glyph unicode="&#x2026;" horiz-adv-x="1103" d="M10 90q4 51 36.5 83t76.5 32q40 0 66 -26t26 -64q-4 -51 -36.5 -83t-76.5 -32q-40 0 -66 26t-26 64zM358 90q4 51 36.5 83t76.5 32q40 0 66 -26t26 -64q-4 -51 -36 -83t-76 -32q-40 0 -66.5 26t-26.5 64zM686 90q4 51 36.5 83t76.5 32q40 0 66 -26t26 -64 q-4 -51 -36.5 -83t-76.5 -32q-40 0 -66 26t-26 64z" />
<glyph unicode="&#x202f;" horiz-adv-x="344" />
<glyph unicode="&#x2039;" horiz-adv-x="1361" d="M59 557v10q6 57 80 92l979 435q40 16 64 16q20 0 35 -6q30 -12 30 -45v-10q-6 -54 -78 -88l-886 -406l784 -401q66 -35 66 -86v-9q-6 -59 -76 -59q-33 0 -76 18l-860 453q-62 35 -62 86z" />
<glyph unicode="&#x203a;" horiz-adv-x="1361" d="M8 63v11q6 57 76 88l868 385l-784 422q-57 29 -57 75v11q6 63 77 63q25 0 48 -10l880 -455q80 -42 80 -90q-5 -61 -117 -114l-958 -437q-23 -10 -45 -10q-68 0 -68 61z" />
<glyph unicode="&#x205f;" horiz-adv-x="430" />
<glyph unicode="&#x20ac;" horiz-adv-x="1566" d="M70 590q6 86 82 86h96q0 111 14 160h-94q-68 0 -68 61q6 82 84 82h115q31 97 79.5 184t117.5 162t151 129.5t185.5 85.5t216.5 31q251 0 413 -168q33 -29 33 -68q-4 -40 -27 -64t-55 -24q-15 0 -33.5 7.5t-27.5 17.5q-58 64 -144 96.5t-184 32.5q-103 0 -193 -33 t-158 -92t-118 -133.5t-82 -163.5h713q71 0 71 -64q-6 -79 -88 -79h-735q-12 -68 -12 -160h524q72 0 72 -60q-6 -84 -86 -84h-494q34 -176 151 -285.5t306 -109.5q196 0 350 139q26 23 53 23q33 0 49.5 -18.5t16.5 -47.5q-6 -60 -39 -86q-213 -170 -457 -170 q-136 0 -247 43.5t-185 120.5t-119 176t-61 215h-119q-67 0 -67 58z" />
<glyph unicode="&#x2122;" horiz-adv-x="1415" d="M158 1503q3 41 41 41h379q34 0 34 -31q-3 -43 -43 -43h-151l-68 -649q-6 -51 -43 -51q-33 0 -33 37v14l68 649h-152q-32 0 -32 33zM457 807l174 688q15 64 69 64q59 0 68 -56l104 -590l240 590q24 56 76 56q54 0 57 -64l33 -670l-2 -10q-3 -35 -37 -35q-36 0 -39 41 l-26 633l-269 -633q-20 -45 -47 -45q-28 0 -37 45l-129 633l-157 -633q-12 -43 -50 -43q-28 0 -28 29z" />
<glyph unicode="&#x25fc;" horiz-adv-x="1136" d="M0 0v1137h1137v-1137h-1137z" />
</font>
</defs>
</svg>
